# xmcd
#
# Track frame offsets:
#	150
#	20651
#	37561
#	55386
#	69253
#	86631
#	104190
#	116405
#	135308
#	153557
#	168739
#	184566
#	205875
#	221440
#	238494
#	251696
#
# Disc length: 3650 seconds
#
# Revision: 0
# Processed by: cddbd v1.5.2PL0 Copyright (c) Steve Scherf et al.
# Submitted via: EZCDAudioConverter 8.3.2.1
#
DISCID=e20e4010
DTITLE=Melodías parar Orar - Volumen I
DYEAR=1900
DGENRE=
TTITLE0=Gloria
TTITLE1=Canción del Misionero 
TTITLE2=Pescador de Hombres
TTITLE3=Caminarè
TTITLE4=Himno a la alegría
TTITLE5=Alabaré
TTITLE6=Hoy Señor te damos gracias
TTITLE7=Como no creer en Dios 
TTITLE8=Tan cerca de mi
TTITLE9=Vuelve
TTITLE10=A ti levanto mis ojos
TTITLE11=Id y Enseñad
TTITLE12=Hombres Nuevos
TTITLE13=Amar es entregarse
TTITLE14=El Señor es mi fuerza
TTITLE15=Vive Dios
EXTD=
EXTT0=
EXTT1=
EXTT2=
EXTT3=
EXTT4=
EXTT5=
EXTT6=
EXTT7=
EXTT8=
EXTT9=
EXTT10=
EXTT11=
EXTT12=
EXTT13=
EXTT14=
EXTT15=
PLAYORDER=
